<?xml version="1.0" standalone="no"?>
<!DOCTYPE svg PUBLIC "-//W3C//DTD SVG 20010904//EN"
 "http://www.w3.org/TR/2001/REC-SVG-20010904/DTD/svg10.dtd">
<svg version="1.0" xmlns="http://www.w3.org/2000/svg"
 width="500.000000pt" height="500.000000pt" viewBox="0 0 500.000000 500.000000"
 preserveAspectRatio="xMidYMid meet">

<g transform="translate(0.000000,500.000000) scale(0.100000,-0.100000)"
fill="#000000" stroke="none">
<path d="M1799 4222 c-69 -69 -77 -82 -84 -125 -13 -96 -4 -115 106 -216 55
-50 104 -89 110 -86 5 4 9 33 9 66 0 32 3 59 8 59 4 0 203 -196 442 -435 l435
-435 52 52 53 52 0 160 0 160 -48 -47 c-26 -26 -52 -47 -57 -47 -6 0 -217 207
-470 460 -253 253 -464 460 -470 459 -5 0 -44 -35 -86 -77z"/>
<path d="M2855 4040 l-260 -261 83 -81 83 -82 147 147 c81 81 151 147 155 147
4 0 7 -393 7 -873 l0 -872 260 -260 260 -260 85 85 85 85 0 1065 0 1065 -82
82 -83 83 -87 -87 -88 -88 0 -159 0 -160 38 37 c21 20 41 37 45 37 4 0 7 -373
7 -830 0 -456 -3 -830 -8 -830 -4 0 -56 48 -115 108 l-107 107 0 949 0 948
-77 79 c-42 44 -79 79 -82 79 -4 0 -123 -117 -266 -260z"/>
<path d="M1332 4047 l-82 -82 0 -1075 0 -1075 85 -85 85 -85 255 255 255 255
0 459 0 459 -102 103 c-56 57 -105 104 -110 104 -4 0 -8 -226 -8 -502 l0 -501
-112 -114 c-62 -62 -116 -113 -120 -113 -4 0 -8 388 -8 861 l0 861 366 -358
365 -358 117 117 117 117 -80 80 c-44 44 -84 80 -89 80 -6 0 -27 -17 -48 -37
l-38 -37 -378 377 c-207 207 -379 377 -382 377 -3 0 -42 -37 -88 -83z"/>
<path d="M2625 2889 c-9 -14 3 -59 15 -59 6 0 10 -27 10 -60 l0 -60 -54 0 -55
0 -3 -37 c-2 -30 -7 -38 -23 -38 -18 0 -20 8 -23 63 l-3 62 31 0 c23 0 30 4
30 19 0 10 7 21 15 25 9 3 15 18 15 35 0 34 -31 51 -55 31 -19 -16 -19 -59 0
-66 24 -10 17 -22 -12 -26 -27 -3 -28 -5 -31 -75 -2 -54 -6 -73 -17 -73 -9 0
-15 14 -17 38 l-3 37 -57 3 -58 3 0 36 c0 23 8 45 21 59 24 26 19 60 -12 69
-40 13 -66 -38 -34 -65 10 -8 15 -31 15 -66 l0 -54 61 0 c60 0 60 0 57 -27 -3
-24 -8 -28 -40 -31 -25 -2 -38 -8 -38 -18 0 -10 -14 -14 -55 -14 l-55 0 0 37
c0 24 8 45 21 59 35 38 3 88 -42 64 -23 -13 -25 -43 -4 -64 9 -8 15 -33 15
-60 l0 -45 58 -3 c54 -3 57 -4 60 -30 3 -28 3 -28 -55 -28 -47 0 -61 4 -71 20
-7 11 -19 20 -26 20 -22 0 -48 -31 -43 -51 3 -13 -2 -19 -17 -21 -16 -2 -21
-10 -21 -32 0 -43 28 -56 58 -28 21 20 33 23 98 20 72 -3 74 -4 77 -30 3 -27
3 -27 -65 -30 l-68 -3 -3 -34 c-2 -19 -11 -40 -19 -46 -25 -18 -9 -65 21 -65
13 0 29 7 36 15 12 15 5 55 -11 55 -5 0 -9 14 -9 30 0 30 0 30 59 30 43 0 60
-4 65 -15 3 -8 17 -15 31 -15 23 0 25 -4 25 -40 0 -29 4 -40 15 -40 20 0 19
-16 -1 -24 -10 -4 -14 -15 -12 -33 2 -23 8 -28 32 -28 44 0 55 26 25 63 -13
17 -30 31 -36 31 -8 1 -13 15 -13 36 l0 35 70 0 70 0 0 -65 0 -65 -30 0 c-25
0 -30 -4 -30 -24 0 -13 -7 -27 -16 -30 -10 -4 -14 -15 -12 -33 2 -22 9 -29 30
-31 43 -5 63 56 22 72 -25 10 -15 26 16 26 l30 0 0 75 c0 74 0 75 25 75 14 0
28 7 31 15 5 11 21 15 60 15 53 0 54 -1 54 -29 0 -17 -6 -31 -16 -35 -25 -10
-14 -60 14 -64 26 -4 52 13 52 34 0 8 -9 22 -20 31 -12 11 -20 30 -20 50 l0
33 -60 0 -60 0 0 30 0 30 78 0 c65 0 80 -3 95 -20 9 -11 23 -20 31 -20 40 0
48 73 9 78 -14 2 -20 8 -16 18 3 8 0 21 -7 29 -16 19 -59 19 -66 0 -5 -11 -22
-15 -65 -15 -59 0 -59 0 -59 30 0 29 1 30 50 30 50 0 50 0 50 32 0 18 9 41 21
54 24 26 19 60 -12 69 -40 13 -66 -38 -34 -65 8 -7 15 -28 15 -46 0 -34 -1
-34 -45 -34 -33 0 -45 4 -45 14 0 10 -14 16 -42 18 -38 3 -43 6 -46 30 -3 26
-2 27 55 30 l58 3 3 65 c2 40 9 71 18 82 24 26 9 58 -26 58 -16 0 -32 -5 -35
-11z m-5 -394 l0 -125 -120 0 c-100 0 -120 3 -120 15 0 12 18 15 105 15 l105
0 0 110 c0 91 3 110 15 110 13 0 15 -21 15 -125z m-80 105 c0 -6 -30 -10 -70
-10 l-69 0 -4 -82 -3 -83 -2 93 -2 92 75 0 c43 0 75 -4 75 -10z m-180 -105 c0
-25 -1 -25 -85 -25 -50 0 -85 4 -85 10 0 6 6 10 14 10 7 0 19 7 26 15 8 10 31
15 71 15 56 0 59 -1 59 -25z m404 10 c3 -8 15 -15 26 -15 11 0 20 -4 20 -10 0
-6 -35 -10 -85 -10 -84 0 -85 0 -85 25 0 24 3 25 59 25 43 0 60 -4 65 -15z"/>
<path d="M1863 1770 c-17 -10 -37 -28 -42 -39 -6 -11 -11 -77 -11 -153 1 -112
3 -136 18 -154 17 -20 53 -44 66 -44 3 0 6 68 6 150 l0 150 110 0 110 0 0
-206 0 -205 23 6 c12 4 32 18 45 31 21 24 22 32 22 217 0 158 -3 197 -16 215
-29 42 -65 52 -186 52 -94 0 -118 -3 -145 -20z"/>
<path d="M2250 1735 l0 -55 85 0 85 0 0 -151 0 -151 28 7 c58 14 67 37 70 180
2 75 -1 142 -7 157 -19 50 -64 68 -168 68 l-93 0 0 -55z"/>
<path d="M2653 1773 c-50 -25 -58 -58 -58 -233 l0 -155 25 3 c54 6 65 32 70
165 l5 122 158 3 157 3 0 -55 0 -54 -111 -4 -111 -3 -29 -33 c-42 -47 -37 -63
29 -108 31 -21 89 -61 127 -89 39 -28 83 -56 98 -63 31 -13 147 -17 147 -4 0
5 -48 42 -106 83 -58 41 -115 82 -126 91 -25 21 -17 25 65 31 43 3 63 10 82
27 23 22 25 30 25 122 0 162 -9 168 -247 167 -133 0 -175 -4 -200 -16z"/>
<path d="M1574 1151 c-58 -35 -64 -53 -64 -189 0 -73 5 -132 11 -145 16 -31
43 -55 65 -59 18 -3 19 7 24 147 l5 150 103 3 102 3 0 -211 0 -211 23 6 c12 4
34 21 50 38 l27 31 0 188 c0 208 -4 223 -63 253 -48 24 -242 21 -283 -4z"/>
<path d="M1950 1115 l0 -54 88 -3 87 -3 -3 -140 c-2 -77 1 -146 6 -153 14 -20
59 2 82 40 17 28 20 51 20 156 0 184 -25 212 -190 212 l-90 0 0 -55z"/>
<path d="M3030 1132 l-40 -39 0 -82 c0 -93 13 -126 62 -154 25 -14 57 -17 194
-17 l164 0 0 -45 0 -45 -164 0 c-147 0 -169 -2 -199 -20 -31 -18 -57 -55 -57
-80 0 -6 86 -10 215 -10 233 0 256 4 289 54 11 18 16 48 16 105 0 78 -1 81
-35 115 l-35 36 -173 2 -172 3 0 50 0 50 170 5 c180 5 200 10 229 55 35 53 26
55 -208 55 l-215 0 -41 -38z"/>
<path d="M2604 1153 c-31 -6 -55 -36 -109 -138 -27 -49 -58 -108 -70 -130 -78
-142 -115 -214 -115 -223 0 -20 39 -23 75 -6 38 18 64 57 160 239 32 61 67
123 78 138 19 28 20 28 31 8 34 -60 57 -102 86 -156 55 -103 106 -144 154
-125 l25 9 -66 118 c-36 65 -81 147 -101 182 -26 46 -44 67 -68 77 -34 14 -41
15 -80 7z"/>
<path d="M2620 932 c-35 -24 -49 -43 -50 -69 0 -22 4 -23 76 -23 74 0 75 1 69
23 -11 36 -46 87 -58 86 -7 0 -23 -8 -37 -17z"/>
</g>
</svg>
